<svg width="375" height="168" viewBox="0 0 375 168" fill="none" xmlns="http://www.w3.org/2000/svg">
<g clip-path="url(#clip0_1_481)">
<path d="M224.391 48.123C224.391 48.772 224.191 49.4958 223.817 50.3195L213.608 71.1861C212.235 74.1064 209.664 75.5791 205.871 75.5791C201.727 75.5791 199.006 74.1064 197.684 71.1861L188.199 50.3195C187.899 49.6206 187.75 49.0216 187.75 48.5224C187.75 46.9249 188.573 45.6021 190.221 44.5288C191.868 43.4056 193.765 42.8564 195.911 42.8564C199.705 42.8564 202.201 44.5038 203.35 47.7736L205.97 55.012L209.54 47.7736C211.137 44.5038 213.633 42.8564 216.978 42.8564C218.925 42.8564 220.647 43.3806 222.169 44.404C223.617 45.3525 224.366 46.6005 224.366 48.148L224.391 48.123Z" fill="#7DCC8A"/>
<path d="M260.733 69.6884C260.733 71.4606 260.034 72.8833 258.611 73.9566C257.189 75.0299 255.341 75.579 253.07 75.579C251.323 75.579 249.7 75.1048 248.253 74.1563C245.907 75.1048 243.361 75.579 240.59 75.579C230.955 75.579 226.138 71.6603 226.138 63.8228V48.2727C226.138 46.5006 226.912 45.1277 228.484 44.1293C229.907 43.3057 231.629 42.9063 233.676 42.9063C235.723 42.9063 237.52 43.3057 238.943 44.1293C240.49 45.1527 241.289 46.5505 241.289 48.2727V62.7246C241.289 64.0225 242.038 64.6715 243.56 64.6715C244.983 64.6715 245.682 63.8478 245.682 62.2254V48.2727C245.682 46.6004 246.381 45.2775 247.804 44.329C249.251 43.3306 250.998 42.8314 252.995 42.8314C255.142 42.8314 256.914 43.2557 258.312 44.0545C259.959 45.0529 260.783 46.4506 260.783 48.2478V69.6884H260.733Z" fill="#7DCC8A"/>
<path d="M298.996 55.8856C298.996 59.1554 297.948 61.1272 295.851 61.8261C296.725 62.0757 297.449 62.5999 298.048 63.3736C298.622 64.2472 298.922 65.0459 298.922 65.8197C298.922 68.6652 296.9 71.0613 292.856 72.9832C289.212 74.6556 285.318 75.5042 281.175 75.5042C275.434 75.5042 270.842 73.8568 267.372 70.5372C264.202 67.4421 262.63 63.6981 262.63 59.3051C262.63 54.9122 264.177 51.0433 267.297 47.9483C270.667 44.5537 275.234 42.8564 281.025 42.8564C285.743 42.8564 289.861 44.0296 293.355 46.4008C297.099 48.9467 298.971 52.1166 298.971 55.8856H298.996ZM285.718 54.5378C285.718 53.7141 285.218 53.0651 284.27 52.5909C283.396 52.0667 282.323 51.8171 281.05 51.8171C278.28 51.8171 276.682 52.7157 276.233 54.5378H285.718ZM287.39 62.2754H276.657C276.907 63.0491 277.456 63.748 278.33 64.397C279.253 64.996 280.301 65.2955 281.474 65.2955C282.972 65.2955 284.245 64.9711 285.268 64.3221C285.793 63.9727 286.516 63.2987 287.39 62.2504V62.2754Z" fill="#7DCC8A"/>
<path d="M336.012 59.8792C336.012 64.4968 334.565 68.1659 331.694 70.9115C328.524 73.9566 324.007 75.5042 318.116 75.5042C312.849 75.5042 308.606 74.331 305.336 72.0098C302.017 69.5886 300.369 66.4437 300.369 62.5249C300.369 60.8526 300.943 59.5048 302.117 58.5313C303.39 57.3332 305.212 56.7342 307.583 56.7342C310.254 56.7342 312.151 57.3332 313.274 58.5313C313.374 58.6561 313.973 59.7544 315.096 61.826C315.72 63.0241 316.768 63.6232 318.241 63.6232C320.487 63.6232 321.61 62.5998 321.61 60.5281C321.61 59.1553 320.936 58.1819 319.564 57.6328C319.064 57.458 317.617 57.2334 315.196 56.9089C313.199 56.6593 311.801 56.1851 310.952 55.4862C309.68 54.4878 309.055 53.1899 309.055 51.5425C309.055 48.747 310.578 47.0497 313.648 46.4506C315.345 46.1511 317.068 45.8516 318.84 45.5521C319.913 45.1278 320.437 43.9047 320.437 41.883C320.437 40.7598 319.688 40.2106 318.166 40.2106C317.093 40.2106 316.394 40.7598 316.044 41.883C315.52 43.3806 315.021 44.354 314.597 44.7783C313.523 45.8017 311.601 46.3258 308.831 46.3258C303.964 46.3258 301.543 44.1543 301.543 39.8113C301.543 36.1172 303.115 33.2468 306.285 31.225C309.355 29.2532 313.399 28.2548 318.391 28.2548C323.383 28.2548 327.201 29.5776 330.222 32.2484C332.992 34.7943 334.39 37.9393 334.39 41.6833C334.39 45.7268 333.167 48.9467 330.746 51.2929C332.693 52.8404 334.016 54.1383 334.689 55.1617C335.563 56.4596 336.012 58.0321 336.012 59.8792Z" fill="#7DCC8A"/>
<path d="M237.495 136.506C237.495 139.003 236.496 140.924 234.55 142.297C232.503 143.795 230.107 144.544 227.361 144.544C224.266 144.544 221.595 143.87 219.324 142.497C216.853 141.074 215.63 139.077 215.63 136.531V114.966C215.63 114.292 215.006 113.943 213.733 113.943C212.335 113.943 211.611 115.315 211.611 118.061V136.556C211.611 139.052 210.388 141.049 207.917 142.522C205.746 143.82 203.1 144.494 200.005 144.494C197.184 144.494 194.763 143.77 192.717 142.347C190.745 140.974 189.771 139.052 189.771 136.556V105.631C189.771 100.015 193.39 97.2194 200.654 97.2194C203.325 97.2194 205.646 97.8683 207.618 99.1912C211.062 97.8933 214.307 97.2194 217.327 97.2194C230.781 97.2194 237.495 102.86 237.495 114.117V136.531V136.506Z" fill="#2A3435"/>
<path d="M294.304 121.281C294.304 128.619 291.558 134.41 286.067 138.653C281.075 142.572 275.01 144.544 267.896 144.544C260.783 144.544 254.518 142.572 249.526 138.653C243.885 134.41 241.089 128.619 241.089 121.281C241.089 114.492 243.236 108.926 247.529 104.558C252.246 99.6405 259.01 97.1694 267.796 97.1694C276.582 97.1694 283.696 99.5656 288.289 104.358C292.307 108.526 294.304 114.167 294.304 121.256V121.281ZM275.834 121.555C275.834 116.189 273.188 113.518 267.921 113.518C265.25 113.518 263.204 114.292 261.806 115.865C260.333 117.362 259.585 119.259 259.585 121.555C259.585 123.552 260.433 125.125 262.13 126.323C263.678 127.571 265.55 128.195 267.722 128.195C270.118 128.195 272.04 127.571 273.537 126.323C275.085 125.15 275.858 123.552 275.858 121.555H275.834Z" fill="#2A3435"/>
<path d="M345.996 132.588C345.996 136.007 343.875 138.878 339.656 141.174C335.863 143.346 331.669 144.444 327.102 144.444C319.439 144.444 313.973 143.321 310.728 141.074C307.558 138.828 305.985 134.884 305.985 129.218V113.618H301.967C299.371 113.618 297.249 112.944 295.627 111.571C294.005 110.199 293.206 108.551 293.206 106.629C293.206 104.383 293.905 102.436 295.327 100.739C296.95 98.742 299.196 97.7436 302.092 97.7436H306.31V89.981C306.31 87.3602 307.483 85.3135 309.804 83.8159C311.776 82.4431 314.247 81.7692 317.192 81.7692C320.138 81.7692 322.484 82.518 324.581 84.0156C326.627 85.4383 327.651 87.4351 327.651 90.006V97.7686H335.888C338.708 97.7686 340.954 98.6671 342.652 100.464C344.399 102.137 345.297 104.034 345.297 106.155C345.297 108.277 344.524 109.949 342.976 111.372C341.279 112.869 338.933 113.618 335.912 113.618H327.251V128.944C327.251 128.944 328.375 128.395 330.421 127.271C332.468 126.148 334.515 125.599 336.536 125.599C339.132 125.599 341.354 126.273 343.201 127.646C345.098 129.019 346.046 130.666 346.046 132.588H345.996Z" fill="#2A3435"/>
<path d="M375 85.2386C375 88.109 373.777 90.3804 371.306 92.0527C369.134 93.4754 366.414 94.1992 363.169 94.1992C359.924 94.1992 356.929 93.4754 354.607 92.0527C352.012 90.3804 350.714 88.109 350.714 85.2386C350.714 82.3682 351.937 80.0718 354.408 78.3246C356.654 76.7771 359.4 75.9784 362.645 75.9784C365.889 75.9784 368.76 76.7272 371.081 78.2248C373.677 79.972 375 82.2933 375 85.2386ZM373.727 136.057C373.727 138.678 372.679 140.7 370.557 142.123C368.385 143.67 365.839 144.469 362.944 144.469C360.049 144.469 357.528 143.795 355.556 142.422C353.384 140.924 352.286 138.803 352.286 136.082V104.882C352.286 102.461 353.409 100.489 355.656 98.9916C357.702 97.6936 360.198 97.0197 363.144 97.0197C370.182 97.0197 373.702 99.6655 373.702 104.957V136.057H373.727Z" fill="#2A3435"/>
<path d="M21.1162 97.2944C26.6823 102.86 28.2797 110.274 24.6855 113.843C21.0912 117.412 14.7514 114.517 8.13696 110.274C0.32446 105.257 0.973422 97.2944 4.56767 93.7251C8.16192 90.1558 15.5501 91.7533 21.1162 97.2944Z" fill="#7DCC8A"/>
<path d="M20.617 117.437C16.3489 117.437 11.3568 114.691 7.06371 111.921C2.99522 109.3 0.52417 105.606 0.0748885 101.513C-0.299512 98.0182 0.84865 94.5737 3.14498 92.2774C7.56291 87.8594 16.0743 89.4319 22.514 95.8466C28.9537 102.286 30.5262 110.798 26.0833 115.216C24.5108 116.763 22.6388 117.412 20.5921 117.412L20.617 117.437ZM9.65955 93.775C8.16195 93.775 6.86403 94.1993 5.96546 95.1228C4.54274 96.5455 3.79394 98.8418 4.04354 101.113C4.26818 103.135 5.34146 106.08 9.21027 108.576C16.6484 113.369 21.1162 114.592 23.2628 112.42C26.0084 109.675 24.386 103.385 19.6935 98.6921C16.5485 95.5471 12.6797 93.775 9.65955 93.775Z" fill="#2A3435"/>
<path d="M3.19481 99.2163C3.29465 104.533 14.2771 111.871 25.2595 111.821C25.6089 111.821 25.7587 112.27 25.4342 112.445L20.592 115.341C20.592 115.341 20.3923 115.415 20.2925 115.365L10.9075 111.946C10.9075 111.946 10.8326 111.921 10.8076 111.896L4.26809 106.754C4.26809 106.754 4.16825 106.629 4.14329 106.555L2.54585 99.4659C2.47097 99.1165 3.14489 98.8169 3.14489 99.1664L3.19481 99.2163Z" fill="#2A3435"/>
<path d="M164.961 95.5471C164.861 79.997 152.856 70.8117 138.728 65.3704V78.9737C132.838 77.2764 126.897 75.9036 120.882 74.9301L112.47 73.782C107.553 73.2578 102.636 72.9583 97.6938 72.8834L89.2822 73.0082C84.3401 73.2079 79.423 73.6572 74.5059 74.3311L66.0943 75.7538C60.0789 76.9269 54.1135 78.4745 48.2479 80.3714V65.3455C34.1205 70.7868 22.1147 79.997 22.0149 95.5222C21.8401 122.654 22.2645 151.782 22.2645 151.782C24.0865 156.949 25.9336 159.969 30.4514 159.969H156.5C161.017 159.969 162.865 156.949 164.687 151.782C164.687 151.782 165.111 122.654 164.936 95.5222L164.961 95.5471Z" fill="#7DCC8A"/>
<path d="M93.5005 132.763L38.3138 102.761C37.3403 102.236 36.9909 101.013 37.5151 100.065C38.0392 99.0914 39.2623 98.742 40.2107 99.2662L93.5005 128.245L146.79 99.2662C147.764 98.742 148.962 99.0914 149.486 100.065C150.01 101.038 149.661 102.236 148.687 102.761L93.5005 132.763Z" fill="#2A3435"/>
<path d="M37.2653 153.804C36.7661 153.804 36.2419 153.604 35.8425 153.23C35.0688 152.456 35.0688 151.183 35.8425 150.409L68.066 118.186C68.8397 117.412 70.1127 117.412 70.8865 118.186C71.6602 118.96 71.6602 120.233 70.8865 121.006L38.663 153.23C38.2637 153.629 37.7645 153.804 37.2403 153.804H37.2653Z" fill="#2A3435"/>
<path d="M149.76 153.804C149.261 153.804 148.737 153.604 148.337 153.23L116.114 121.006C115.34 120.233 115.34 118.96 116.114 118.186C116.888 117.412 118.161 117.412 118.935 118.186L151.158 150.409C151.932 151.183 151.932 152.456 151.158 153.23C150.759 153.629 150.259 153.804 149.735 153.804H149.76Z" fill="#2A3435"/>
<path d="M164.711 153.804H22.3142C21.2159 153.804 20.3174 152.905 20.3174 151.807C20.3174 150.709 21.2159 149.81 22.3142 149.81H164.711C165.81 149.81 166.708 150.709 166.708 151.807C166.708 152.905 165.81 153.804 164.711 153.804Z" fill="#2A3435"/>
<path d="M27.1816 161.192L29.6526 166.309C29.8024 166.608 30.077 166.783 30.4014 166.783H40.0111C40.3355 166.783 40.6351 166.583 40.7599 166.284L43.1061 161.167C43.3557 160.618 42.9563 159.994 42.3573 159.994H27.9554C27.3313 159.994 26.932 160.643 27.2065 161.192H27.1816Z" fill="#2A3435"/>
<path d="M142.871 161.541L145.342 166.658C145.492 166.958 145.767 167.133 146.091 167.133H155.701C156.025 167.133 156.325 166.933 156.45 166.633L158.796 161.517C159.045 160.967 158.646 160.343 158.047 160.343H143.645C143.021 160.343 142.622 160.992 142.896 161.541H142.871Z" fill="#2A3435"/>
<path d="M22.3142 151.807L26.6073 159.994L159.345 160.343L164.711 151.807H22.3142Z" fill="#2A3435"/>
<g opacity="0.6">
<path d="M21.9149 147.389C22.1645 141.973 22.1645 106.729 21.9648 101.313C21.7401 95.6968 22.1145 89.9061 24.3609 84.7643C26.4576 79.9221 30.1267 75.8785 34.345 72.7585C38.5632 69.6385 43.3805 67.3422 48.2727 65.3704C48.2976 65.8696 48.3226 66.3937 48.3476 66.8929C38.064 69.7134 32.7226 78.8488 29.6275 89.0575C25.6089 102.361 31.4246 158.971 21.8899 147.389H21.9149Z" fill="white"/>
</g>
<path d="M156.5 161.991H30.5012C24.3111 161.991 22.1396 157.298 20.4173 152.481L20.2925 151.832C20.2925 151.533 19.8682 122.379 20.0429 95.5471C20.1428 81.2949 29.378 70.5122 47.5489 63.4984L50.2696 62.4501V77.6508C55.3614 76.1032 60.5531 74.8053 65.7198 73.7819L74.1813 72.3592C79.1484 71.6603 84.1903 71.2111 89.2073 71.0114L97.6687 70.8866C102.711 70.9365 107.728 71.261 112.67 71.7851L121.131 72.9333C126.373 73.8069 131.589 74.9301 136.706 76.3279V62.4501L139.427 63.4984C157.573 70.4872 166.833 81.27 166.933 95.5471C167.108 122.379 166.683 151.558 166.683 151.832L166.559 152.481C164.861 157.298 162.665 161.991 156.475 161.991H156.5ZM24.2861 151.433C26.1332 156.5 27.531 157.997 30.4762 157.997H156.5C159.445 157.997 160.868 156.525 162.69 151.433C162.74 148.138 163.089 120.807 162.939 95.5471C162.864 83.7909 155.376 74.6555 140.7 68.3157V81.6194L138.154 80.8706C132.388 79.1983 126.448 77.8504 120.532 76.877L112.171 75.7538C107.403 75.2296 102.511 74.9301 97.6438 74.8802L89.2821 75.005C84.4649 75.2047 79.5477 75.6539 74.7554 76.3279L66.3938 77.7256C60.5282 78.8738 54.6126 80.4213 48.8468 82.2684L46.226 83.117V68.3157C31.5495 74.6555 24.0615 83.7909 23.9866 95.5471C23.8119 120.782 24.1863 148.113 24.2362 151.433H24.2861Z" fill="#2A3435"/>
<g opacity="0.3">
<path d="M52.9403 110.673L91.4787 136.407C93.0262 137.505 95.0729 137.48 96.6205 136.407L135.334 109.999C136.207 109.35 135.334 108.002 134.41 108.551L93.9248 131.265C93.6502 131.415 93.3507 131.415 93.0761 131.265L53.8639 109.25C52.9154 108.726 52.0418 110.074 52.9403 110.698V110.673Z" fill="#2A3435"/>
</g>
<path d="M150.859 28.0052C150.859 12.0807 125.175 1.99683 93.5005 1.99683C61.8262 1.99683 36.1672 12.0807 36.1672 28.0052C36.1672 34.6945 40.71 40.8347 48.2978 45.7269V80.3714C54.1634 78.4745 60.1289 76.9269 66.1443 75.7538V42.532C66.1443 40.4603 67.8416 38.763 69.9132 38.763H70.7868C72.8585 38.763 74.5558 40.4603 74.5558 42.532V74.3311C79.448 73.6572 84.3901 73.2079 89.3322 73.0082V42.532C89.3322 40.4603 91.0295 38.763 93.1011 38.763H93.9747C96.0464 38.763 97.7437 40.4603 97.7437 42.532V72.8834C102.686 72.9333 107.603 73.2328 112.52 73.782V42.532C112.52 40.4603 114.217 38.763 116.289 38.763H117.163C119.234 38.763 120.932 40.4603 120.932 42.532V74.9301C126.922 75.9285 132.887 77.2764 138.778 78.9737V45.7269C146.366 40.8347 150.909 34.6945 150.909 28.0052H150.859Z" fill="#FAEAD1"/>
<path d="M74.5309 42.5319C74.5309 40.4602 72.8336 38.7629 70.762 38.7629H69.8884C67.8167 38.7629 66.1194 40.4602 66.1194 42.5319V75.7538C68.9149 75.2046 71.7104 74.7304 74.5309 74.331V42.5319Z" fill="#EFB892"/>
<path d="M97.7187 72.8834V42.5319C97.7187 40.4602 96.0214 38.7629 93.9497 38.7629H93.0761C91.0044 38.7629 89.3071 40.4602 89.3071 42.5319V73.0081C92.1027 72.8834 94.8982 72.8584 97.7187 72.8834Z" fill="#EFB892"/>
<path d="M120.882 42.5319C120.882 40.4602 119.184 38.7629 117.113 38.7629H116.239C114.167 38.7629 112.47 40.4602 112.47 42.5319V73.7819C115.291 74.0814 118.086 74.4558 120.882 74.9301V42.5319Z" fill="#EFB892"/>
<path d="M48.2979 78.749C52.591 77.1516 58.6313 75.2296 66.1443 73.5323V75.7538C60.1289 76.9269 54.1635 78.4744 48.2979 80.3964V78.749Z" fill="#DFD08B"/>
<path d="M74.5308 71.8849C79.0485 71.1112 83.9906 70.4872 89.2822 70.0629V73.0082C84.3401 73.2078 79.4229 73.6571 74.5308 74.331V71.8849Z" fill="#DFD08B"/>
<path d="M112.47 69.8632V73.7819C107.578 73.2328 102.636 72.9333 97.7188 72.8834V69.6136C102.411 69.4888 107.328 69.5387 112.47 69.8382V69.8632Z" fill="#DFD08B"/>
<path d="M150.859 28.0052C150.859 34.6945 146.316 40.8347 138.728 45.7269V75.7289H138.279L136.532 78.3497C131.365 76.9269 126.123 75.7788 120.882 74.9052V70.5122C125.375 70.9865 127.496 71.6354 132.239 72.509V45.7019C161.941 8.91077 84.0157 2.72067 81.2202 2.52099C85.1639 2.17155 89.2823 1.99683 93.5006 1.99683C125.175 1.99683 150.859 12.0807 150.859 28.0052Z" fill="#EFB892"/>
<path d="M46.301 83.117V46.8001C38.3637 41.4087 34.1704 34.9191 34.1704 28.0052C34.1455 13.8029 52.566 3.02017 81.0454 0.549121C85.039 0.199681 89.2323 0 93.5005 0C128.445 0 152.856 11.5066 152.856 28.0052C152.856 34.9441 148.662 41.4087 140.725 46.8001V81.5945L135.983 80.2716C130.916 78.8738 125.699 77.7506 120.557 76.877L118.885 76.6024V42.532C118.885 41.5585 118.086 40.7598 117.113 40.7598H116.239C115.266 40.7598 114.467 41.5585 114.467 42.532V76.0034L112.246 75.7538C107.478 75.2296 102.586 74.9301 97.6688 74.8552H95.697V42.507C95.697 41.5086 94.9232 40.7348 93.9248 40.7348H93.0762C92.1027 40.7348 91.304 41.5336 91.304 42.507V74.8802L89.3821 74.9551C84.5149 75.1548 79.6227 75.604 74.8054 76.253L72.5341 76.5775V42.482C72.5341 41.5086 71.7353 40.7099 70.7619 40.7099H69.9132C68.9148 40.7099 68.1411 41.4836 68.1411 42.482V77.3263L66.5187 77.6508C60.6281 78.7989 54.6876 80.3464 48.8969 82.2185L46.2761 83.0671L46.301 83.117ZM93.5005 3.99361C89.3322 3.99361 85.2637 4.16833 81.3949 4.51777C55.5363 6.78914 38.1391 16.224 38.1391 28.0052C38.1391 35.2935 44.2293 40.7598 49.3711 44.0545L50.2946 44.6536V77.6508C54.8623 76.253 59.5049 75.0799 64.1475 74.1064V42.532C64.1475 39.362 66.7433 36.7662 69.9132 36.7662H70.7619C73.9568 36.7662 76.5277 39.362 76.5277 42.532V72.0597C80.097 71.6104 83.6912 71.3109 87.2855 71.1112V42.5569C87.2855 39.387 89.8813 36.7911 93.0512 36.7911H93.8999C97.0948 36.7911 99.6656 39.387 99.6656 42.5569V70.9365C103.285 71.0363 106.904 71.236 110.423 71.5855V42.5569C110.423 39.387 113.019 36.7911 116.189 36.7911H117.063C120.233 36.7911 122.829 39.387 122.829 42.5569V73.2578C127.471 74.0815 132.114 75.1298 136.681 76.3528V44.6536L137.605 44.0545C142.722 40.7598 148.837 35.2935 148.837 28.0052C148.837 14.0775 125.549 3.99361 93.4755 3.99361H93.5005Z" fill="#2A3435"/>
<path d="M149.286 85.1887C110.024 70.2626 78.5743 69.7384 39.5867 85.9375C38.7381 86.2869 38.0891 84.964 38.9627 84.5647C64.0975 70.3624 95.048 65.8446 122.978 73.707C132.288 76.1781 141.299 79.5727 149.96 83.6162C150.909 84.0405 150.31 85.588 149.286 85.1887Z" fill="#2A3435"/>
</g>
<defs>
<clipPath id="clip0_1_481">
<rect width="375" height="167.133" fill="white"/>
</clipPath>
</defs>
</svg>
