<svg width="60" height="60" viewBox="0 0 60 60" fill="none" xmlns="http://www.w3.org/2000/svg">
<path d="M7.58404 34.9289C9.5842 36.9271 10.1582 39.5884 8.86666 40.8698C7.57507 42.1512 5.29686 41.1118 2.91998 39.5884C0.112578 37.7874 0.345781 34.9289 1.63737 33.6476C2.92895 32.3662 5.58388 32.9397 7.58404 34.9289Z" fill="#7DCC8A"/>
<path d="M7.40489 42.1594C5.87113 42.1594 4.07726 41.1738 2.53453 40.1792C1.07253 39.2383 0.184564 37.9121 0.0231155 36.4426C-0.111425 35.1881 0.301165 33.9515 1.12634 33.1271C2.71392 31.5411 5.77246 32.1056 8.08656 34.4085C10.4006 36.7204 10.9657 39.7759 9.36917 41.362C8.8041 41.9175 8.1314 42.1505 7.39592 42.1505L7.40489 42.1594ZM3.46734 33.6648C2.92918 33.6648 2.46278 33.8171 2.13988 34.1487C1.62863 34.6594 1.35955 35.4838 1.44924 36.2992C1.52997 37.025 1.91565 38.0824 3.3059 38.9784C5.97876 40.6989 7.58427 41.1379 8.35563 40.3584C9.34226 39.3727 8.75926 37.1146 7.07302 35.43C5.94288 34.301 4.55263 33.6648 3.46734 33.6648Z" fill="#2A3435"/>
<path d="M1.14447 35.6188C1.18035 37.5274 5.12686 40.1618 9.07337 40.1439C9.19894 40.1439 9.25276 40.3052 9.13616 40.3679L7.3961 41.4073C7.3961 41.4073 7.32435 41.4342 7.28847 41.4163L3.916 40.1887C3.916 40.1887 3.88909 40.1797 3.88012 40.1708L1.53015 38.3249C1.53015 38.3249 1.49427 38.2801 1.4853 38.2532L0.911267 35.7084C0.884359 35.5829 1.12653 35.4754 1.12653 35.6008L1.14447 35.6188Z" fill="#2A3435"/>
<path d="M59.2752 34.3023C59.2393 28.7198 54.925 25.4223 49.8484 23.4689V28.3525C47.7316 27.7431 45.5969 27.2503 43.4353 26.9008L40.4126 26.4886C38.6457 26.3005 36.8787 26.1929 35.1028 26.1661L32.0801 26.2109C30.3042 26.2826 28.5372 26.4438 26.7703 26.6858L23.7476 27.1965C21.586 27.6177 19.4423 28.1732 17.3345 28.8543V23.46C12.2579 25.4134 7.94362 28.7198 7.90774 34.2933C7.84496 44.0335 7.99744 54.4906 7.99744 54.4906C8.6522 56.3454 9.31593 57.4297 10.9394 57.4297H56.2346C57.858 57.4297 58.5218 56.3454 59.1765 54.4906C59.1765 54.4906 59.329 44.0335 59.2662 34.2933L59.2752 34.3023Z" fill="#7DCC8A"/>
<path d="M33.5952 47.6617L13.764 36.8911C13.4142 36.7029 13.2886 36.2638 13.477 35.9233C13.6654 35.5739 14.1049 35.4484 14.4457 35.6366L33.5952 46.0399L52.7448 35.6366C53.0946 35.4484 53.5251 35.5739 53.7135 35.9233C53.9018 36.2728 53.7763 36.7029 53.4265 36.8911L33.5952 47.6617Z" fill="#2A3435"/>
<path d="M13.3868 55.2158C13.2074 55.2158 13.019 55.1442 12.8755 55.0097C12.5975 54.732 12.5975 54.275 12.8755 53.9972L24.455 42.429C24.733 42.1513 25.1904 42.1513 25.4685 42.429C25.7465 42.7068 25.7465 43.1638 25.4685 43.4416L13.8891 55.0097C13.7456 55.1531 13.5662 55.2158 13.3778 55.2158H13.3868Z" fill="#2A3435"/>
<path d="M53.8129 55.2158C53.6335 55.2158 53.4451 55.1442 53.3016 55.0097L41.7222 43.4416C41.4442 43.1638 41.4442 42.7068 41.7222 42.429C42.0003 42.1513 42.4577 42.1513 42.7357 42.429L54.3152 53.9972C54.5932 54.275 54.5932 54.732 54.3152 55.0097C54.1717 55.1531 53.9923 55.2158 53.8039 55.2158H53.8129Z" fill="#2A3435"/>
<path d="M59.1855 55.2168H8.0154C7.62075 55.2168 7.29785 54.8939 7.29785 54.4993C7.29785 54.1046 7.62075 53.7817 8.0154 53.7817H59.1855C59.5802 53.7817 59.9031 54.1046 59.9031 54.4993C59.9031 54.8939 59.5802 55.2168 59.1855 55.2168Z" fill="#2A3435"/>
<path d="M9.76294 57.868L10.6509 59.7067C10.7047 59.8144 10.8034 59.8772 10.92 59.8772H14.3732C14.4898 59.8772 14.5974 59.8054 14.6423 59.6978L15.4854 57.8591C15.5751 57.6617 15.4316 57.4375 15.2163 57.4375H10.041C9.81675 57.4375 9.67324 57.6707 9.77191 57.868H9.76294Z" fill="#2A3435"/>
<path d="M51.3372 57.994L52.2251 59.8327C52.2789 59.9404 52.3776 60.0031 52.4942 60.0031H55.9474C56.064 60.0031 56.1716 59.9314 56.2165 59.8238L57.0596 57.985C57.1493 57.7877 57.0058 57.5635 56.7905 57.5635H51.6152C51.391 57.5635 51.2475 57.7967 51.3461 57.994H51.3372Z" fill="#2A3435"/>
<path d="M8.01562 54.4985L9.55835 57.4405L57.2573 57.566L59.1857 54.4985H8.01562Z" fill="#2A3435"/>
<g opacity="0.6">
<path d="M7.87225 52.9128C7.96194 50.9684 7.96194 38.316 7.89019 36.3716C7.80946 34.3554 7.94401 32.2765 8.75125 30.4307C9.50467 28.6923 10.8232 27.2407 12.339 26.1206C13.8548 25.0005 15.5859 24.1762 17.3439 23.4683C17.3528 23.6475 17.3618 23.8356 17.3708 24.0149C13.6754 25.0274 11.756 28.307 10.6438 31.9719C9.19971 36.7479 11.2896 57.0706 7.86328 52.9128H7.87225Z" fill="white"/>
</g>
<path d="M56.2342 58.1544H10.9569C8.73252 58.1544 7.95218 56.4698 7.3333 54.7404L7.28845 54.5074C7.28845 54.3999 7.13597 43.9339 7.19876 34.3012C7.23464 29.1847 10.5533 25.3137 17.083 22.7958L18.0606 22.4194V27.8764C19.8904 27.3209 21.756 26.8549 23.6127 26.4876L26.6533 25.9768C28.4382 25.7259 30.25 25.5646 32.0528 25.4929L35.0934 25.4481C36.9052 25.466 38.7081 25.5825 40.484 25.7707L43.5246 26.1829C45.4082 26.4965 47.2827 26.8997 49.1215 27.4015V22.4194L50.0991 22.7958C56.6198 25.3048 59.9475 29.1757 59.9833 34.3012C60.0461 43.9339 59.8936 54.4088 59.8936 54.5074L59.8488 54.7404C59.2389 56.4698 58.4496 58.1544 56.2252 58.1544H56.2342ZM8.72355 54.364C9.38728 56.183 9.88956 56.7207 10.9479 56.7207H56.2342C57.2925 56.7207 57.8038 56.192 58.4585 54.364C58.4765 53.1812 58.6021 43.3694 58.5482 34.3012C58.5213 30.0808 55.8305 26.8012 50.5566 24.5252V29.3012L49.6417 29.0324C47.5698 28.432 45.4351 27.9481 43.3093 27.5987L40.3046 27.1954C38.5915 27.0073 36.8335 26.8997 35.0844 26.8818L32.0797 26.9266C30.3486 26.9983 28.5817 27.1596 26.8596 27.4015L23.8548 27.9033C21.747 28.3155 19.6213 28.8711 17.5494 29.5342L16.6076 29.8388V24.5252C11.3336 26.8012 8.64282 30.0808 8.61591 34.3012C8.55313 43.3604 8.68767 53.1723 8.70561 54.364H8.72355Z" fill="#2A3435"/>
<g opacity="0.3">
<path d="M19.0199 39.7316L32.8686 48.97C33.4247 49.3643 34.1602 49.3553 34.7163 48.97L48.6277 39.4897C48.9417 39.2567 48.6277 38.7728 48.2959 38.97L33.7476 47.1241C33.6489 47.1779 33.5413 47.1779 33.4426 47.1241L19.3518 39.2209C19.011 39.0327 18.697 39.5166 19.0199 39.7406V39.7316Z" fill="#2A3435"/>
</g>
<path d="M54.2063 10.0538C54.2063 4.33689 44.9769 0.716797 33.5948 0.716797C22.2127 0.716797 12.9922 4.33689 12.9922 10.0538C12.9922 12.4552 14.6246 14.6595 17.3513 16.4158V28.8531C19.4591 28.1721 21.6028 27.6166 23.7644 27.1954V15.2688C23.7644 14.5251 24.3743 13.9158 25.1187 13.9158H25.4327C26.1771 13.9158 26.787 14.5251 26.787 15.2688V26.6847C28.545 26.4427 30.321 26.2814 32.0969 26.2098V15.2688C32.0969 14.5251 32.7068 13.9158 33.4513 13.9158H33.7652C34.5096 13.9158 35.1196 14.5251 35.1196 15.2688V26.1649C36.8955 26.1829 38.6624 26.2904 40.4294 26.4875V15.2688C40.4294 14.5251 41.0393 13.9158 41.7838 13.9158H42.0977C42.8422 13.9158 43.4521 14.5251 43.4521 15.2688V26.8997C45.6047 27.2581 47.7484 27.742 49.8652 28.3513V16.4158C52.5918 14.6595 54.2243 12.4552 54.2243 10.0538H54.2063Z" fill="#FAEAD1"/>
<path d="M26.7785 15.2691C26.7785 14.5253 26.1686 13.916 25.4242 13.916H25.1102C24.3658 13.916 23.7559 14.5253 23.7559 15.2691V27.1956C24.7604 26.9985 25.765 26.8283 26.7785 26.6849V15.2691Z" fill="#EFB892"/>
<path d="M35.1106 26.1652V15.2691C35.1106 14.5253 34.5006 13.916 33.7562 13.916H33.4423C32.6978 13.916 32.0879 14.5253 32.0879 15.2691V26.21C33.0925 26.1652 34.097 26.1562 35.1106 26.1652Z" fill="#EFB892"/>
<path d="M43.4348 15.2691C43.4348 14.5253 42.8249 13.916 42.0804 13.916H41.7665C41.022 13.916 40.4121 14.5253 40.4121 15.2691V26.4878C41.4256 26.5953 42.4302 26.7297 43.4348 26.9V15.2691Z" fill="#EFB892"/>
<path d="M17.3516 28.2725C18.8943 27.6985 21.0649 27.0079 23.7646 26.3979V27.1962C21.603 27.6178 19.4594 28.1739 17.3516 28.8645V28.2725Z" fill="#DFD08B"/>
<path d="M26.7773 25.8071C28.4008 25.5291 30.1767 25.3048 32.0782 25.1523V26.2107C30.3023 26.2825 28.5353 26.4439 26.7773 26.6861V25.8071Z" fill="#DFD08B"/>
<path d="M40.4112 25.0809V26.4891C38.6532 26.2917 36.8773 26.1841 35.1104 26.1662V24.9912C36.7966 24.9463 38.5635 24.9643 40.4112 25.0719V25.0809Z" fill="#DFD08B"/>
<path d="M54.2061 10.0538C54.2061 12.4552 52.5737 14.6595 49.847 16.4158V27.1865H49.6856L49.0577 28.1273C47.2011 27.6166 45.3175 27.2044 43.4339 26.8908V25.3137C45.0484 25.4839 45.8108 25.7169 47.515 26.0305V16.4068C58.1885 3.19889 30.1862 0.976655 29.1816 0.90497C30.5988 0.779521 32.0787 0.716797 33.5946 0.716797C44.9767 0.716797 54.2061 4.33689 54.2061 10.0538Z" fill="#EFB892"/>
<path d="M16.6335 29.8389V16.8012C13.7813 14.8657 12.2744 12.5359 12.2744 10.0538C12.2655 4.95522 18.8848 1.08423 29.1189 0.197134C30.5539 0.0716849 32.0608 0 33.5946 0C46.1516 0 54.9236 4.13084 54.9236 10.0538C54.9236 12.5449 53.4168 14.8657 50.5645 16.8012V29.2923L48.8604 28.8173C47.0396 28.3155 45.165 27.9123 43.3173 27.5987L42.7164 27.5001V15.2689C42.7164 14.9194 42.4293 14.6327 42.0795 14.6327H41.7656C41.4158 14.6327 41.1288 14.9194 41.1288 15.2689V27.2851L40.3305 27.1955C38.6174 27.0073 36.8594 26.8998 35.0924 26.8729H34.3839V15.2599C34.3839 14.9015 34.1058 14.6237 33.747 14.6237H33.4421C33.0923 14.6237 32.8053 14.9105 32.8053 15.2599V26.8818L32.1146 26.9087C30.3656 26.9804 28.6076 27.1417 26.8765 27.3747L26.0603 27.4912V15.251C26.0603 14.9015 25.7733 14.6148 25.4235 14.6148H25.1185C24.7597 14.6148 24.4817 14.8925 24.4817 15.251V27.76L23.8987 27.8765C21.7819 28.2887 19.6472 28.8442 17.5663 29.5163L16.6246 29.8209L16.6335 29.8389ZM33.5946 1.4337C32.0967 1.4337 30.6347 1.49642 29.2444 1.62187C19.9522 2.43729 13.7005 5.8244 13.7005 10.0538C13.7005 12.6703 15.8891 14.6327 17.7368 15.8155L18.0686 16.0305V27.8765C19.71 27.3747 21.3783 26.9535 23.0466 26.6041V15.2689C23.0466 14.1309 23.9794 13.199 25.1185 13.199H25.4235C26.5716 13.199 27.4954 14.1309 27.4954 15.2689V25.8693C28.778 25.708 30.0696 25.6005 31.3612 25.5288V15.2779C31.3612 14.1399 32.294 13.2079 33.4331 13.2079H33.7381C34.8861 13.2079 35.81 14.1399 35.81 15.2779V25.4661C37.1105 25.5019 38.4111 25.5736 39.6758 25.699V15.2779C39.6758 14.1399 40.6086 13.2079 41.7477 13.2079H42.0616C43.2007 13.2079 44.1335 14.1399 44.1335 15.2779V26.2994C45.8018 26.5951 47.4701 26.9715 49.1115 27.4105V16.0305L49.4434 15.8155C51.2821 14.6327 53.4796 12.6703 53.4796 10.0538C53.4796 5.05379 45.1112 1.4337 33.5856 1.4337H33.5946Z" fill="#2A3435"/>
<path d="M53.6413 30.582C39.5325 25.2236 28.2312 25.0354 14.2211 30.8509C13.9161 30.9763 13.6829 30.5014 13.9968 30.358C23.0289 25.2594 34.1509 23.6376 44.1876 26.4602C47.5332 27.3473 50.7711 28.5659 53.8835 30.0175C54.2243 30.1698 54.0091 30.7254 53.6413 30.582Z" fill="#2A3435"/>
</svg>
