<svg width="560" height="250" viewBox="0 0 560 250" fill="none" xmlns="http://www.w3.org/2000/svg">
<g clip-path="url(#clip0_1_480)">
<path d="M335.091 71.9962C335.091 72.9653 334.792 74.0463 334.233 75.2763L318.988 106.437C316.938 110.798 313.099 112.997 307.434 112.997C301.246 112.997 297.183 110.798 295.208 106.437L281.044 75.2763C280.596 74.2326 280.373 73.3381 280.373 72.5926C280.373 70.2071 281.603 68.2316 284.063 66.6288C286.523 64.9515 289.356 64.1315 292.561 64.1315C298.227 64.1315 301.954 66.5915 303.669 71.4744L307.583 82.2838L312.913 71.4744C315.298 66.5915 319.026 64.1315 324.02 64.1315C326.928 64.1315 329.5 64.9142 331.773 66.4424C333.935 67.8588 335.053 69.7225 335.053 72.0335L335.091 71.9962Z" fill="#7DCC8A"/>
<path d="M389.361 104.201C389.361 106.847 388.317 108.972 386.193 110.575C384.068 112.177 381.31 112.997 377.918 112.997C375.309 112.997 372.886 112.289 370.724 110.873C367.22 112.289 363.419 112.997 359.281 112.997C344.894 112.997 337.7 107.145 337.7 95.4414V72.2199C337.7 69.5735 338.855 67.5234 341.203 66.0325C343.328 64.8024 345.9 64.2061 348.956 64.2061C352.013 64.2061 354.697 64.8024 356.821 66.0325C359.132 67.5607 360.325 69.648 360.325 72.2199V93.8014C360.325 95.7396 361.443 96.7087 363.717 96.7087C365.841 96.7087 366.885 95.4787 366.885 93.0559V72.2199C366.885 69.7226 367.929 67.7471 370.053 66.3307C372.215 64.8397 374.824 64.0942 377.806 64.0942C381.012 64.0942 383.658 64.7279 385.745 65.9206C388.206 67.4116 389.436 69.4989 389.436 72.1826V104.201H389.361Z" fill="#7DCC8A"/>
<path d="M446.502 83.5883C446.502 88.4712 444.936 91.4158 441.805 92.4595C443.11 92.8322 444.191 93.615 445.085 94.7704C445.943 96.075 446.39 97.2678 446.39 98.4233C446.39 102.672 443.371 106.251 437.332 109.121C431.89 111.618 426.076 112.885 419.888 112.885C411.315 112.885 404.457 110.425 399.276 105.468C394.542 100.846 392.194 95.255 392.194 88.6948C392.194 82.1347 394.505 76.3572 399.164 71.7353C404.196 66.6661 411.017 64.1315 419.665 64.1315C426.709 64.1315 432.859 65.8833 438.078 69.4243C443.669 73.2263 446.464 77.96 446.464 83.5883H446.502ZM426.672 81.5756C426.672 80.3455 425.927 79.3764 424.51 78.6682C423.206 77.8855 421.603 77.5127 419.702 77.5127C415.564 77.5127 413.179 78.8546 412.508 81.5756H426.672ZM429.169 93.1304H413.142C413.514 94.2859 414.334 95.3295 415.639 96.2987C417.018 97.1932 418.584 97.6405 420.335 97.6405C422.572 97.6405 424.473 97.156 426.001 96.1868C426.784 95.665 427.865 94.6586 429.169 93.0931V93.1304Z" fill="#7DCC8A"/>
<path d="M501.779 89.5522C501.779 96.4478 499.617 101.927 495.33 106.027C490.596 110.575 483.85 112.886 475.053 112.886C467.189 112.886 460.852 111.134 455.969 107.667C451.012 104.052 448.552 99.3552 448.552 93.5032C448.552 91.0059 449.409 88.9931 451.161 87.5394C453.062 85.7503 455.783 84.8557 459.324 84.8557C463.312 84.8557 466.145 85.7503 467.822 87.5394C467.971 87.7258 468.866 89.3658 470.543 92.4595C471.475 94.2487 473.041 95.1432 475.24 95.1432C478.594 95.1432 480.272 93.615 480.272 90.5213C480.272 88.4713 479.265 87.0176 477.215 86.1976C476.47 85.9366 474.308 85.6012 470.692 85.1166C467.71 84.7439 465.623 84.0357 464.356 82.992C462.455 81.5011 461.523 79.5628 461.523 77.1028C461.523 72.9281 463.797 70.3935 468.381 69.4989C470.916 69.0517 473.488 68.6044 476.134 68.1571C477.737 67.5234 478.52 65.697 478.52 62.6779C478.52 61.0005 477.402 60.1805 475.128 60.1805C473.525 60.1805 472.481 61.0005 471.96 62.6779C471.177 64.9143 470.431 66.368 469.798 67.0016C468.195 68.5298 465.325 69.3126 461.188 69.3126C453.919 69.3126 450.304 66.0698 450.304 59.5841C450.304 54.0676 452.652 49.7812 457.386 46.762C461.97 43.8174 468.009 42.3264 475.463 42.3264C482.918 42.3264 488.621 44.3019 493.131 48.2902C497.268 52.0921 499.356 56.7886 499.356 62.3797C499.356 68.418 497.529 73.2263 493.914 76.73C496.821 79.041 498.797 80.9792 499.803 82.5075C501.108 84.4457 501.779 86.7939 501.779 89.5522Z" fill="#7DCC8A"/>
<path d="M354.659 203.983C354.659 207.71 353.168 210.58 350.261 212.63C347.204 214.866 343.626 215.985 339.526 215.985C334.904 215.985 330.916 214.978 327.524 212.928C323.834 210.804 322.007 207.822 322.007 204.02V171.815C322.007 170.809 321.076 170.287 319.175 170.287C317.087 170.287 316.006 172.337 316.006 176.437V204.057C316.006 207.784 314.18 210.766 310.49 212.965C307.247 214.904 303.296 215.91 298.674 215.91C294.462 215.91 290.847 214.829 287.79 212.705C284.846 210.655 283.392 207.784 283.392 204.057V157.875C283.392 149.488 288.797 145.314 299.643 145.314C303.631 145.314 307.098 146.283 310.043 148.258C315.186 146.32 320.032 145.314 324.542 145.314C344.633 145.314 354.659 153.738 354.659 170.548V204.02V203.983Z" fill="#2A3435"/>
<path d="M439.494 181.246C439.494 192.204 435.394 200.851 427.194 207.188C419.739 213.04 410.682 215.985 400.059 215.985C389.436 215.985 380.08 213.04 372.625 207.188C364.201 200.851 360.027 192.204 360.027 181.246C360.027 171.107 363.232 162.795 369.643 156.272C376.688 148.929 386.789 145.239 399.909 145.239C413.03 145.239 423.653 148.817 430.511 155.974C436.512 162.199 439.494 170.623 439.494 181.208V181.246ZM411.912 181.656C411.912 173.642 407.961 169.653 400.096 169.653C396.108 169.653 393.051 170.809 390.964 173.157C388.765 175.394 387.646 178.226 387.646 181.656C387.646 184.637 388.914 186.986 391.448 188.775C393.759 190.638 396.555 191.57 399.798 191.57C403.376 191.57 406.246 190.638 408.482 188.775C410.793 187.023 411.949 184.637 411.949 181.656H411.912Z" fill="#2A3435"/>
<path d="M516.688 198.13C516.688 203.237 513.52 207.523 507.22 210.953C501.555 214.195 495.293 215.835 488.472 215.835C477.029 215.835 468.866 214.158 464.02 210.804C459.286 207.449 456.938 201.56 456.938 193.099V169.802H450.937C447.061 169.802 443.892 168.796 441.47 166.746C439.047 164.696 437.854 162.236 437.854 159.366C437.854 156.011 438.898 153.104 441.022 150.569C443.445 147.587 446.8 146.096 451.123 146.096H457.423V134.504C457.423 130.591 459.175 127.534 462.641 125.298C465.586 123.248 469.276 122.241 473.674 122.241C478.072 122.241 481.576 123.359 484.707 125.596C487.763 127.72 489.292 130.702 489.292 134.542V146.134H501.592C505.804 146.134 509.159 147.476 511.693 150.159C514.302 152.657 515.644 155.489 515.644 158.658C515.644 161.826 514.489 164.323 512.178 166.448C509.643 168.684 506.139 169.802 501.629 169.802H488.695V192.688C488.695 192.688 490.373 191.868 493.429 190.191C496.486 188.514 499.542 187.694 502.561 187.694C506.438 187.694 509.755 188.7 512.513 190.75C515.346 192.8 516.762 195.26 516.762 198.13H516.688Z" fill="#2A3435"/>
<path d="M560 127.422C560 131.709 558.174 135.101 554.483 137.598C551.241 139.723 547.178 140.804 542.332 140.804C537.487 140.804 533.014 139.723 529.547 137.598C525.671 135.101 523.733 131.709 523.733 127.422C523.733 123.136 525.559 119.707 529.249 117.097C532.604 114.787 536.704 113.594 541.549 113.594C546.395 113.594 550.682 114.712 554.148 116.948C558.024 119.558 560 123.024 560 127.422ZM558.099 203.312C558.099 207.225 556.534 210.244 553.365 212.369C550.122 214.68 546.321 215.873 541.997 215.873C537.673 215.873 533.908 214.866 530.964 212.816C527.721 210.58 526.081 207.412 526.081 203.349V156.757C526.081 153.141 527.758 150.197 531.113 147.96C534.169 146.022 537.897 145.015 542.295 145.015C552.806 145.015 558.062 148.966 558.062 156.869V203.312H558.099Z" fill="#2A3435"/>
<path d="M31.5336 145.425C39.8456 153.738 42.2311 164.808 36.8637 170.138C31.4963 175.468 22.0288 171.144 12.1512 164.808C0.484576 157.316 1.45369 145.425 6.8211 140.095C12.1885 134.765 23.2215 137.151 31.5336 145.425Z" fill="#7DCC8A"/>
<path d="M30.788 175.505C24.4142 175.505 16.9595 171.405 10.5484 167.268C4.47277 163.354 0.782672 157.838 0.111746 151.725C-0.44736 146.506 1.26723 141.363 4.69641 137.933C11.2939 131.336 24.0042 133.684 33.6208 143.264C43.2374 152.88 45.5857 165.591 38.9509 172.188C36.6027 174.499 33.8072 175.468 30.7507 175.468L30.788 175.505ZM14.4248 140.17C12.1884 140.17 10.2502 140.804 8.90834 142.183C6.78374 144.307 5.66553 147.736 6.03826 151.128C6.37373 154.147 7.9765 158.546 13.7539 162.273C24.8615 169.43 31.5335 171.256 34.739 168.013C38.8391 163.913 36.4163 154.52 29.4089 147.513C24.7124 142.816 18.935 140.17 14.4248 140.17Z" fill="#2A3435"/>
<path d="M4.771 148.295C4.9201 156.235 21.3205 167.193 37.7209 167.119C38.2428 167.119 38.4664 167.79 37.9819 168.05L30.7508 172.374C30.7508 172.374 30.4526 172.486 30.3035 172.412L16.2886 167.305C16.2886 167.305 16.1768 167.268 16.1395 167.23L6.37377 159.552C6.37377 159.552 6.22468 159.366 6.1874 159.254L3.80189 148.668C3.69006 148.146 4.69645 147.699 4.69645 148.221L4.771 148.295Z" fill="#2A3435"/>
<path d="M246.342 142.816C246.193 119.595 228.264 105.878 207.167 97.7524V118.067C198.37 115.532 189.499 113.482 180.516 112.028L167.955 110.314C160.612 109.531 153.269 109.084 145.889 108.972L133.328 109.158C125.948 109.456 118.605 110.127 111.262 111.134L98.7006 113.258C89.7177 115.01 80.8092 117.321 72.0499 120.154V97.7151C50.953 105.841 33.0244 119.595 32.8753 142.779C32.6144 183.295 33.248 226.794 33.248 226.794C35.969 234.51 38.7272 239.02 45.4738 239.02H233.706C240.452 239.02 243.211 234.51 245.932 226.794C245.932 226.794 246.565 183.295 246.304 142.779L246.342 142.816Z" fill="#7DCC8A"/>
<path d="M139.627 198.391L57.2149 153.588C55.7613 152.806 55.2394 150.979 56.0222 149.563C56.8049 148.109 58.6314 147.587 60.0478 148.37L139.627 191.645L219.206 148.37C220.66 147.587 222.449 148.109 223.232 149.563C224.015 151.017 223.493 152.806 222.039 153.588L139.627 198.391Z" fill="#2A3435"/>
<path d="M55.6494 229.813C54.9039 229.813 54.1212 229.515 53.5248 228.956C52.3693 227.8 52.3693 225.899 53.5248 224.744L101.645 176.623C102.801 175.468 104.702 175.468 105.857 176.623C107.013 177.779 107.013 179.68 105.857 180.835L57.7367 228.956C57.1404 229.552 56.3949 229.813 55.6121 229.813H55.6494Z" fill="#2A3435"/>
<path d="M223.642 229.813C222.897 229.813 222.114 229.515 221.517 228.956L173.397 180.835C172.242 179.68 172.242 177.779 173.397 176.623C174.553 175.468 176.454 175.468 177.609 176.623L225.729 224.744C226.885 225.899 226.885 227.8 225.729 228.956C225.133 229.552 224.388 229.813 223.605 229.813H223.642Z" fill="#2A3435"/>
<path d="M245.969 229.813H33.3227C31.6827 229.813 30.3408 228.471 30.3408 226.831C30.3408 225.191 31.6827 223.849 33.3227 223.849H245.969C247.609 223.849 248.951 225.191 248.951 226.831C248.951 228.471 247.609 229.813 245.969 229.813Z" fill="#2A3435"/>
<path d="M40.5909 240.846L44.281 248.487C44.5047 248.934 44.9147 249.195 45.3992 249.195H59.7496C60.2342 249.195 60.6815 248.897 60.8678 248.45L64.3716 240.809C64.7443 239.989 64.1479 239.057 63.2533 239.057H41.7464C40.8146 239.057 40.2182 240.026 40.6282 240.846H40.5909Z" fill="#2A3435"/>
<path d="M213.355 241.368L217.045 249.009C217.268 249.456 217.678 249.717 218.163 249.717H232.513C232.998 249.717 233.445 249.419 233.631 248.972L237.135 241.331C237.508 240.511 236.912 239.579 236.017 239.579H214.51C213.578 239.579 212.982 240.548 213.392 241.368H213.355Z" fill="#2A3435"/>
<path d="M33.3225 226.831L39.7336 239.057L237.955 239.579L245.969 226.831H33.3225Z" fill="#2A3435"/>
<g opacity="0.6">
<path d="M32.7262 220.234C33.099 212.145 33.099 159.515 32.8008 151.426C32.4653 143.04 33.0244 134.392 36.3791 126.714C39.51 119.483 44.9893 113.445 51.2885 108.785C57.5878 104.126 64.7816 100.697 72.0873 97.7523C72.1245 98.4978 72.1618 99.2805 72.1991 100.026C56.8423 104.238 48.8657 117.88 44.2438 133.125C38.2427 152.992 46.9275 237.529 32.689 220.234H32.7262Z" fill="white"/>
</g>
<path d="M233.706 242.039H45.5484C36.3045 242.039 33.0617 235.031 30.4898 227.838L30.3034 226.868C30.3034 226.421 29.6698 182.885 29.9307 142.816C30.0798 121.533 43.8711 105.431 71.0063 94.9569L75.0691 93.3914V116.091C82.673 113.78 90.4259 111.842 98.1415 110.314L110.777 108.189C118.195 107.145 125.724 106.474 133.216 106.176L145.852 105.99C153.381 106.064 160.873 106.549 168.253 107.332L180.889 109.046C188.717 110.351 196.507 112.028 204.148 114.116V93.3914L208.211 94.9569C235.309 105.393 249.137 121.496 249.286 142.816C249.547 182.885 248.914 226.458 248.914 226.868L248.727 227.838C246.193 235.031 242.913 242.039 233.669 242.039H233.706ZM36.2672 226.272C39.0255 233.839 41.1128 236.075 45.5111 236.075H233.706C238.104 236.075 240.229 233.876 242.95 226.272C243.024 221.352 243.546 180.537 243.323 142.816C243.211 125.26 232.029 111.618 210.112 102.151V122.018L206.31 120.899C197.7 118.402 188.828 116.389 179.995 114.936L167.508 113.258C160.389 112.475 153.083 112.028 145.815 111.954L133.328 112.14C126.134 112.438 118.791 113.109 111.635 114.116L99.1479 116.203C90.3886 117.917 81.5548 120.228 72.9445 122.987L69.0308 124.254V102.151C47.1139 111.618 35.9318 125.26 35.8199 142.816C35.559 180.5 36.1181 221.315 36.1927 226.272H36.2672Z" fill="#2A3435"/>
<g opacity="0.3">
<path d="M79.0573 165.404L136.608 203.833C138.919 205.473 141.975 205.436 144.286 203.833L202.098 164.398C203.402 163.429 202.098 161.416 200.719 162.236L140.261 196.155C139.851 196.379 139.403 196.379 138.993 196.155L80.4364 163.28C79.02 162.497 77.7154 164.51 79.0573 165.441V165.404Z" fill="#2A3435"/>
</g>
<path d="M225.282 41.9537C225.282 18.1731 186.928 3.1145 139.627 3.1145C92.3269 3.1145 54.0095 18.1731 54.0095 41.9537C54.0095 51.943 60.7933 61.1124 72.1245 68.418V120.154C80.8839 117.321 89.7923 115.01 98.7752 113.258V63.647C98.7752 60.5533 101.31 58.0187 104.404 58.0187H105.708C108.802 58.0187 111.336 60.5533 111.336 63.647V111.134C118.642 110.127 126.022 109.456 133.402 109.158V63.647C133.402 60.5533 135.937 58.0187 139.031 58.0187H140.335C143.429 58.0187 145.964 60.5533 145.964 63.647V108.972C153.344 109.046 160.687 109.494 168.03 110.314V63.647C168.03 60.5533 170.564 58.0187 173.658 58.0187H174.963C178.056 58.0187 180.591 60.5533 180.591 63.647V112.028C189.537 113.519 198.445 115.532 207.242 118.067V68.418C218.573 61.1124 225.357 51.943 225.357 41.9537H225.282Z" fill="#FAEAD1"/>
<path d="M111.299 63.6469C111.299 60.5532 108.765 58.0186 105.671 58.0186H104.366C101.273 58.0186 98.738 60.5532 98.738 63.6469V113.258C102.913 112.438 107.087 111.73 111.299 111.134V63.6469Z" fill="#EFB892"/>
<path d="M145.926 108.972V63.6469C145.926 60.5532 143.392 58.0186 140.298 58.0186H138.994C135.9 58.0186 133.365 60.5532 133.365 63.6469V109.158C137.54 108.972 141.715 108.934 145.926 108.972Z" fill="#EFB892"/>
<path d="M180.517 63.6469C180.517 60.5532 177.982 58.0186 174.888 58.0186H173.584C170.49 58.0186 167.955 60.5532 167.955 63.6469V110.314C172.167 110.761 176.342 111.32 180.517 112.028V63.6469Z" fill="#EFB892"/>
<path d="M72.1245 117.731C78.5356 115.346 87.5558 112.476 98.7752 109.941V113.258C89.7922 115.01 80.8838 117.321 72.1245 120.191V117.731Z" fill="#DFD08B"/>
<path d="M111.299 107.481C118.046 106.325 125.426 105.393 133.328 104.76V109.158C125.948 109.456 118.605 110.127 111.299 111.134V107.481Z" fill="#DFD08B"/>
<path d="M167.955 104.462V110.314C160.65 109.494 153.269 109.046 145.927 108.972V104.089C152.934 103.903 160.277 103.977 167.955 104.424V104.462Z" fill="#DFD08B"/>
<path d="M225.282 41.9537C225.282 51.943 218.498 61.1124 207.167 68.418V113.221H206.496L203.887 117.135C196.171 115.01 188.344 113.296 180.516 111.991V105.431C187.226 106.139 190.394 107.108 197.476 108.413V68.3807C241.832 13.4393 125.463 4.19544 121.289 3.89725C127.178 3.37542 133.328 3.1145 139.627 3.1145C186.928 3.1145 225.282 18.1731 225.282 41.9537Z" fill="#EFB892"/>
<path d="M69.1426 124.254V70.0207C57.2896 61.9696 51.0276 52.2785 51.0276 41.9537C50.9904 20.7449 78.4983 4.64269 121.028 0.95259C126.991 0.430758 133.253 0.132568 139.627 0.132568C191.81 0.132568 228.264 17.3157 228.264 41.9537C228.264 52.3157 222.002 61.9696 210.149 70.0207V121.98L203.067 120.005C195.5 117.917 187.71 116.24 180.032 114.936L177.535 114.526V63.6469C177.535 62.1933 176.342 61.0005 174.888 61.0005H173.584C172.13 61.0005 170.937 62.1933 170.937 63.6469V113.631L167.62 113.258C160.5 112.475 153.195 112.028 145.852 111.916H142.907V63.6097C142.907 62.1187 141.752 60.9632 140.261 60.9632H138.994C137.54 60.9632 136.347 62.156 136.347 63.6097V111.954L133.477 112.065C126.209 112.364 118.903 113.035 111.709 114.004L108.317 114.488V63.5724C108.317 62.1187 107.125 60.926 105.671 60.926H104.404C102.913 60.926 101.757 62.0815 101.757 63.5724V115.606L99.3343 116.091C90.5377 117.806 81.6666 120.117 73.0191 122.912L69.1054 124.179L69.1426 124.254ZM139.627 6.09636C133.402 6.09636 127.327 6.35728 121.549 6.87911C82.9339 10.271 56.9541 24.3605 56.9541 41.9537C56.9541 52.8376 66.0489 61.0005 73.7273 65.9206L75.1064 66.8152V116.091C81.9275 114.004 88.8604 112.252 95.7933 110.798V63.6469C95.7933 58.9132 99.6698 55.0367 104.404 55.0367H105.671C110.442 55.0367 114.281 58.9132 114.281 63.6469V107.742C119.611 107.071 124.979 106.624 130.346 106.325V63.6842C130.346 58.9505 134.223 55.074 138.956 55.074H140.224C144.995 55.074 148.834 58.9505 148.834 63.6842V106.064C154.238 106.214 159.643 106.512 164.899 107.034V63.6842C164.899 58.9505 168.775 55.074 173.509 55.074H174.814C179.547 55.074 183.424 58.9505 183.424 63.6842V109.531C190.357 110.761 197.29 112.326 204.111 114.153V66.8152L205.49 65.9206C213.131 61.0005 222.263 52.8376 222.263 41.9537C222.263 21.1549 187.487 6.09636 139.59 6.09636H139.627Z" fill="#2A3435"/>
<path d="M222.934 127.348C164.302 105.058 117.337 104.275 59.1159 128.466C57.8486 128.988 56.8795 127.012 58.1841 126.416C95.7187 105.207 141.938 98.4606 183.647 110.202C197.55 113.892 211.006 118.961 223.94 124.999C225.357 125.633 224.462 127.944 222.934 127.348Z" fill="#2A3435"/>
</g>
<defs>
<clipPath id="clip0_1_480">
<rect width="560" height="249.585" fill="white" transform="translate(0 0.132568)"/>
</clipPath>
</defs>
</svg>
